<svg xmlns="http://www.w3.org/2000/svg" aria-hidden="true" style="position:absolute;width:0;height:0;overflow:hidden"><defs><symbol id="icon-checkmark-outline" viewBox="0 0 32 32"><path stroke-linecap="round" stroke-linejoin="round" stroke-width="1.6" d="M26 8 12 24l-6-6"/></symbol><symbol id="icon-close" viewBox="0 0 32 32">
<path stroke-linejoin="round" stroke-linecap="round" stroke-miterlimit="4" stroke-width="1.6" d="M24 24l-16-16M24 8l-16 16"></path>
</symbol><symbol id="icon-email" viewBox="0 0 32 32"><path fill="#f7fbfb" d="M26.88 5.6H5.12c-1.496 0-2.706 1.17-2.706 2.6L2.4 23.8c0 1.43 1.224 2.6 2.72 2.6h21.76c1.496 0 2.72-1.17 2.72-2.6V8.2c0-1.43-1.224-2.6-2.72-2.6zm-.544 5.525-9.615 5.746a1.43 1.43 0 0 1-1.442 0l-9.615-5.746c-.136-.073-.256-.172-.351-.291s-.164-.254-.203-.399a1.052 1.052 0 0 1 .14-.859 1.14 1.14 0 0 1 .747-.497 1.207 1.207 0 0 1 .891.174L16 14.7l9.112-5.447a1.193 1.193 0 0 1 .891-.174c.153.03.298.09.427.175.128.085.237.195.32.322a1.073 1.073 0 0 1 .14.859 1.079 1.079 0 0 1-.203.399 1.15 1.15 0 0 1-.351.291z" style="fill:var(--color1, #f7fbfb)"/></symbol><symbol id="icon-facebook" viewBox="0 0 32 32"><path fill="#f7fbfb" d="M16 2.72c-7.333 0-13.333 5.987-13.333 13.36 0 6.667 4.88 12.2 11.253 13.2v-9.333h-3.387V16.08h3.387v-2.947c0-3.347 1.987-5.187 5.04-5.187 1.453 0 2.973.253 2.973.253v3.293h-1.68c-1.653 0-2.173 1.027-2.173 2.08v2.507h3.707l-.6 3.867H18.08v9.333a13.332 13.332 0 0 0 11.254-13.2c0-7.373-6-13.36-13.333-13.36z" style="fill:var(--color1, #f7fbfb)"/></symbol><symbol id="icon-instagram" viewBox="0 0 32 32"><path fill="#f7fbfb" d="M10.4 2.667h11.2a7.739 7.739 0 0 1 7.733 7.733v11.2a7.733 7.733 0 0 1-7.733 7.733H10.4A7.739 7.739 0 0 1 2.667 21.6V10.4A7.733 7.733 0 0 1 10.4 2.667zm-.267 2.666a4.8 4.8 0 0 0-4.8 4.8v11.733c0 2.653 2.147 4.8 4.8 4.8h11.733a4.8 4.8 0 0 0 4.8-4.8V10.133c0-2.653-2.147-4.8-4.8-4.8H10.133zm12.867 2a1.667 1.667 0 1 1 0 3.334 1.667 1.667 0 0 1 0-3.334zm-7 2a6.67 6.67 0 0 1 4.714 11.381 6.67 6.67 0 0 1-9.428 0 6.67 6.67 0 0 1 0-9.428A6.67 6.67 0 0 1 16 9.333zM16 12a4.003 4.003 0 0 0-4 4 4.003 4.003 0 0 0 4 4 4.001 4.001 0 0 0 2.828-6.828A4.001 4.001 0 0 0 16 12z" style="fill:var(--color1, #f7fbfb)"/></symbol><symbol id="icon-logotype" viewBox="0 0 32 32"><path fill="#f7fbfb" d="M28.315 6.422 18.618 1.13C17.913.745 16.983.533 16 .533s-1.913.212-2.618.597L3.685 6.422c-1.468.801-2.618 2.684-2.618 4.286v10.586c0 1.602 1.15 3.485 2.618 4.286l9.697 5.291c.705.385 1.635.597 2.618.597s1.913-.212 2.618-.597l9.697-5.293c1.468-.801 2.618-2.684 2.618-4.286V10.707c0-1.598-1.15-3.482-2.618-4.283zM4.226 24.69c-1.125-.614-2.076-2.17-2.076-3.398v-4.524c3.453-.257 5.498.608 8.052 1.694 2.298.978 5.062 2.152 9.577 2.784-.844.153-1.696.294-2.545.434-4.612.761-8.973 1.485-11.357 3.911l-1.651-.901zm14.567-9.207c-2.084.783-4.798 1.485-8.811 1.764-1.774-.745-3.464-1.375-5.677-1.52l7.374-6.969 7.115 6.725zm-.516-1.936 5.302-5.011 3.985 3.767c-2.294.197-3.9.966-5.68 1.822-.62.298-1.28.614-2.014.928l-1.593-1.506zm11.572 7.745c0 1.228-.95 2.784-2.076 3.398l-9.698 5.292c-.534.292-1.29.461-2.075.461s-1.542-.167-2.076-.46L6.84 26.116c2.187-2.042 6.272-2.716 10.582-3.427 4.858-.8 9.859-1.627 12.428-4.592l-.001 3.194zm0-5.109c-1.14 2.337-3.733 3.562-6.823 4.368-5.323-.365-8.46-1.408-11.032-2.458 5.258-.595 8.072-1.947 10.381-3.058 2.274-1.094 4.096-1.964 7.473-1.715v2.863zm0-3.891a17.715 17.715 0 0 0-.803-.039l-5.082-4.804a.564.564 0 0 0-.766 0l-5.684 5.373-5.451-5.151a.564.564 0 0 0-.766 0l-8.502 8.037c-.209.007-.422.017-.64.032v-5.032c0-1.228.951-2.785 2.076-3.398l9.698-5.292c.535-.292 1.292-.46 2.076-.46s1.542.167 2.076.46l9.698 5.292c1.125.614 2.076 2.17 2.076 3.398l-.003 1.583z" style="fill:var(--color1, #f7fbfb)"/></symbol><symbol id="icon-menu" viewBox="0 0 32 32"><path fill="none" stroke="#f7fbfb" stroke-linecap="round" stroke-miterlimit="10" stroke-width="2.4" d="M4.8 9.6h22.4M4.8 16h22.4M4.8 21.6h22.4" style="stroke:var(--color1, #f7fbfb)"/></symbol><symbol id="icon-phone" viewBox="0 0 32 32"><path fill="#f7fbfb" d="M21.415 1.6H10.584c-.898 0-1.759.345-2.393.959S7.2 4.005 7.2 4.873v22.255c0 .868.357 1.7.991 2.314s1.496.959 2.393.959h10.831c.898 0 1.759-.345 2.393-.959s.991-1.446.991-2.314V4.873c0-.868-.357-1.7-.991-2.314S22.312 1.6 21.415 1.6zM16 29.091c-1.124 0-2.031-.877-2.031-1.964s.907-1.964 2.031-1.964 2.031.877 2.031 1.964-.907 1.964-2.031 1.964zm6.092-5.236H9.907V5.528h12.185v18.327z" style="fill:var(--color1, #f7fbfb)"/></symbol><symbol id="icon-place" viewBox="0 0 32 32"><path fill="#f7fbfb" d="M16 2.4c-5.307 0-9.6 4.257-9.6 9.52C6.4 19.06 16 29.6 16 29.6s9.6-10.54 9.6-17.68c0-5.263-4.293-9.52-9.6-9.52zm0 12.92c-.909 0-1.781-.358-2.424-.996s-1.004-1.502-1.004-2.404c0-.902.361-1.767 1.004-2.404a3.446 3.446 0 0 1 4.848 0 3.384 3.384 0 0 1 0 4.808A3.446 3.446 0 0 1 16 15.32z" style="fill:var(--color1, #f7fbfb)"/></symbol><symbol id="icon-star" viewBox="0 0 32 32"><path fill="#f7fbfb" d="M15.247 6.173a.78.78 0 0 1 1.505 0l1.913 6.165c.106.342.41.573.753.573h6.189c.767 0 1.085 1.028.465 1.499l-5.007 3.81a.854.854 0 0 0-.288.927l1.913 6.165c.237.764-.598 1.399-1.218.927l-5.007-3.81a.762.762 0 0 0-.93 0l-5.007 3.81c-.62.472-1.455-.163-1.218-.927l1.913-6.165a.85.85 0 0 0-.288-.927l-5.007-3.81c-.62-.472-.301-1.499.465-1.499h6.189a.796.796 0 0 0 .753-.573l1.913-6.165z" style="fill:var(--color1, #f7fbfb)"/></symbol><symbol id="icon-telegram" viewBox="0 0 32 32"><path fill="#f7fbfb" d="M15.992 2.667A13.336 13.336 0 0 0 2.914 18.602 13.327 13.327 0 0 0 13.39 29.078a13.34 13.34 0 0 0 13.688-5.67A13.336 13.336 0 0 0 25.42 6.572a13.33 13.33 0 0 0-9.428-3.905zm4.24 20.202c-.05.125-.126.237-.222.33s-.212.164-.339.208a.928.928 0 0 1-.775-.068l-3.62-2.813-2.323 2.144a.39.39 0 0 1-.38.052l.445-3.985.013.012.009-.079s6.513-5.931 6.779-6.183c.269-.252.18-.307.18-.307.016-.307-.481 0-.481 0l-8.631 5.552-3.593-1.224s-.552-.197-.604-.633c-.055-.432.621-.667.621-.667L21.6 9.531s1.175-.523 1.175.344L20.231 22.87z" style="fill:var(--color1, #f7fbfb)"/></symbol></defs></svg>